<mxfile host="app.diagrams.net" modified="2023-11-26T02:36:33.812Z" agent="Mozilla/5.0 (Windows NT 10.0; Win64; x64) AppleWebKit/537.36 (KHTML, like Gecko) Chrome/119.0.0.0 Safari/537.36" etag="E3e3FBvdVTe7sBjVzLmp" version="21.6.6" type="device">
  <diagram name="Page-1" id="LZLH3ijqz6ucy52zJSnI">
    <mxGraphModel dx="1434" dy="790" grid="1" gridSize="10" guides="1" tooltips="1" connect="1" arrows="1" fold="1" page="1" pageScale="1" pageWidth="850" pageHeight="1100" math="0" shadow="0">
      <root>
        <mxCell id="0" />
        <mxCell id="1" parent="0" />
        <mxCell id="7SB9g83kL68nbNxZjG1E-3" style="edgeStyle=orthogonalEdgeStyle;rounded=0;orthogonalLoop=1;jettySize=auto;html=1;entryX=0.5;entryY=0;entryDx=0;entryDy=0;" edge="1" parent="1" source="7SB9g83kL68nbNxZjG1E-1" target="7SB9g83kL68nbNxZjG1E-2">
          <mxGeometry relative="1" as="geometry" />
        </mxCell>
        <mxCell id="7SB9g83kL68nbNxZjG1E-1" value="Start" style="strokeWidth=2;html=1;shape=mxgraph.flowchart.start_1;whiteSpace=wrap;" vertex="1" parent="1">
          <mxGeometry x="370" y="80" width="100" height="60" as="geometry" />
        </mxCell>
        <mxCell id="7SB9g83kL68nbNxZjG1E-11" style="edgeStyle=orthogonalEdgeStyle;rounded=0;orthogonalLoop=1;jettySize=auto;html=1;entryX=0.5;entryY=0;entryDx=0;entryDy=0;entryPerimeter=0;" edge="1" parent="1" source="7SB9g83kL68nbNxZjG1E-2" target="7SB9g83kL68nbNxZjG1E-4">
          <mxGeometry relative="1" as="geometry" />
        </mxCell>
        <mxCell id="7SB9g83kL68nbNxZjG1E-2" value="User fills out info, button pressed" style="rounded=1;whiteSpace=wrap;html=1;absoluteArcSize=1;arcSize=14;strokeWidth=2;" vertex="1" parent="1">
          <mxGeometry x="370" y="180" width="100" height="100" as="geometry" />
        </mxCell>
        <mxCell id="7SB9g83kL68nbNxZjG1E-6" style="edgeStyle=orthogonalEdgeStyle;rounded=0;orthogonalLoop=1;jettySize=auto;html=1;entryX=1;entryY=0.5;entryDx=0;entryDy=0;" edge="1" parent="1" source="7SB9g83kL68nbNxZjG1E-4" target="7SB9g83kL68nbNxZjG1E-5">
          <mxGeometry relative="1" as="geometry" />
        </mxCell>
        <mxCell id="7SB9g83kL68nbNxZjG1E-7" value="No" style="edgeLabel;html=1;align=center;verticalAlign=middle;resizable=0;points=[];" vertex="1" connectable="0" parent="7SB9g83kL68nbNxZjG1E-6">
          <mxGeometry x="-0.0286" y="3" relative="1" as="geometry">
            <mxPoint as="offset" />
          </mxGeometry>
        </mxCell>
        <mxCell id="7SB9g83kL68nbNxZjG1E-9" style="edgeStyle=orthogonalEdgeStyle;rounded=0;orthogonalLoop=1;jettySize=auto;html=1;entryX=0.5;entryY=0;entryDx=0;entryDy=0;" edge="1" parent="1" source="7SB9g83kL68nbNxZjG1E-4" target="7SB9g83kL68nbNxZjG1E-8">
          <mxGeometry relative="1" as="geometry" />
        </mxCell>
        <mxCell id="7SB9g83kL68nbNxZjG1E-10" value="Yes" style="edgeLabel;html=1;align=center;verticalAlign=middle;resizable=0;points=[];" vertex="1" connectable="0" parent="7SB9g83kL68nbNxZjG1E-9">
          <mxGeometry x="-0.2333" y="-1" relative="1" as="geometry">
            <mxPoint as="offset" />
          </mxGeometry>
        </mxCell>
        <mxCell id="7SB9g83kL68nbNxZjG1E-4" value="if info valid" style="strokeWidth=2;html=1;shape=mxgraph.flowchart.decision;whiteSpace=wrap;" vertex="1" parent="1">
          <mxGeometry x="370" y="320" width="100" height="100" as="geometry" />
        </mxCell>
        <mxCell id="7SB9g83kL68nbNxZjG1E-14" style="edgeStyle=orthogonalEdgeStyle;rounded=0;orthogonalLoop=1;jettySize=auto;html=1;entryX=0;entryY=0.5;entryDx=0;entryDy=0;" edge="1" parent="1" source="7SB9g83kL68nbNxZjG1E-5" target="7SB9g83kL68nbNxZjG1E-2">
          <mxGeometry relative="1" as="geometry">
            <Array as="points">
              <mxPoint x="250" y="230" />
            </Array>
          </mxGeometry>
        </mxCell>
        <mxCell id="7SB9g83kL68nbNxZjG1E-5" value="Display Error Label" style="rounded=1;whiteSpace=wrap;html=1;absoluteArcSize=1;arcSize=14;strokeWidth=2;" vertex="1" parent="1">
          <mxGeometry x="200" y="320" width="100" height="100" as="geometry" />
        </mxCell>
        <mxCell id="7SB9g83kL68nbNxZjG1E-13" style="edgeStyle=orthogonalEdgeStyle;rounded=0;orthogonalLoop=1;jettySize=auto;html=1;entryX=0.5;entryY=0;entryDx=0;entryDy=0;" edge="1" parent="1" source="7SB9g83kL68nbNxZjG1E-8" target="7SB9g83kL68nbNxZjG1E-12">
          <mxGeometry relative="1" as="geometry" />
        </mxCell>
        <mxCell id="7SB9g83kL68nbNxZjG1E-8" value="Create new Dog object with user attributes" style="rounded=1;whiteSpace=wrap;html=1;absoluteArcSize=1;arcSize=14;strokeWidth=2;" vertex="1" parent="1">
          <mxGeometry x="370" y="480" width="100" height="100" as="geometry" />
        </mxCell>
        <mxCell id="7SB9g83kL68nbNxZjG1E-20" style="edgeStyle=orthogonalEdgeStyle;rounded=0;orthogonalLoop=1;jettySize=auto;html=1;entryX=0.5;entryY=0;entryDx=0;entryDy=0;entryPerimeter=0;" edge="1" parent="1" source="7SB9g83kL68nbNxZjG1E-12" target="7SB9g83kL68nbNxZjG1E-16">
          <mxGeometry relative="1" as="geometry" />
        </mxCell>
        <mxCell id="7SB9g83kL68nbNxZjG1E-12" value="Add new Dog attributes to Data Grid" style="rounded=1;whiteSpace=wrap;html=1;absoluteArcSize=1;arcSize=14;strokeWidth=2;" vertex="1" parent="1">
          <mxGeometry x="370" y="620" width="100" height="100" as="geometry" />
        </mxCell>
        <mxCell id="7SB9g83kL68nbNxZjG1E-18" style="edgeStyle=orthogonalEdgeStyle;rounded=0;orthogonalLoop=1;jettySize=auto;html=1;entryX=1;entryY=0.5;entryDx=0;entryDy=0;entryPerimeter=0;" edge="1" parent="1" source="7SB9g83kL68nbNxZjG1E-16" target="7SB9g83kL68nbNxZjG1E-17">
          <mxGeometry relative="1" as="geometry" />
        </mxCell>
        <mxCell id="7SB9g83kL68nbNxZjG1E-19" value="Yes" style="edgeLabel;html=1;align=center;verticalAlign=middle;resizable=0;points=[];" vertex="1" connectable="0" parent="7SB9g83kL68nbNxZjG1E-18">
          <mxGeometry x="-0.2" y="2" relative="1" as="geometry">
            <mxPoint as="offset" />
          </mxGeometry>
        </mxCell>
        <mxCell id="7SB9g83kL68nbNxZjG1E-21" style="edgeStyle=orthogonalEdgeStyle;rounded=0;orthogonalLoop=1;jettySize=auto;html=1;entryX=1;entryY=0.5;entryDx=0;entryDy=0;entryPerimeter=0;" edge="1" parent="1" source="7SB9g83kL68nbNxZjG1E-16" target="7SB9g83kL68nbNxZjG1E-1">
          <mxGeometry relative="1" as="geometry">
            <mxPoint x="550" y="190" as="targetPoint" />
            <Array as="points">
              <mxPoint x="520" y="810" />
              <mxPoint x="520" y="110" />
            </Array>
          </mxGeometry>
        </mxCell>
        <mxCell id="7SB9g83kL68nbNxZjG1E-22" value="No" style="edgeLabel;html=1;align=center;verticalAlign=middle;resizable=0;points=[];" vertex="1" connectable="0" parent="7SB9g83kL68nbNxZjG1E-21">
          <mxGeometry x="-0.3075" y="3" relative="1" as="geometry">
            <mxPoint as="offset" />
          </mxGeometry>
        </mxCell>
        <mxCell id="7SB9g83kL68nbNxZjG1E-16" value="if exit button" style="strokeWidth=2;html=1;shape=mxgraph.flowchart.decision;whiteSpace=wrap;" vertex="1" parent="1">
          <mxGeometry x="370" y="760" width="100" height="100" as="geometry" />
        </mxCell>
        <mxCell id="7SB9g83kL68nbNxZjG1E-17" value="" style="strokeWidth=2;html=1;shape=mxgraph.flowchart.terminator;whiteSpace=wrap;" vertex="1" parent="1">
          <mxGeometry x="220" y="780" width="100" height="60" as="geometry" />
        </mxCell>
      </root>
    </mxGraphModel>
  </diagram>
</mxfile>
